<mxfile host="app.diagrams.net" agent="Mozilla/5.0 (X11; Ubuntu; Linux x86_64; rv:134.0) Gecko/20100101 Firefox/134.0" version="26.0.7">
  <diagram name="Page-1" id="Em9yhqcdgrq9ITPZe2QI">
    <mxGraphModel dx="1364" dy="795" grid="1" gridSize="10" guides="1" tooltips="1" connect="1" arrows="1" fold="1" page="1" pageScale="1" pageWidth="3300" pageHeight="4681" math="0" shadow="0">
      <root>
        <mxCell id="0" />
        <mxCell id="1" parent="0" />
        <mxCell id="5-14tlIYAE3f_qk5LCCF-5" style="edgeStyle=orthogonalEdgeStyle;rounded=0;orthogonalLoop=1;jettySize=auto;html=1;exitX=0.5;exitY=1;exitDx=0;exitDy=0;entryX=0.5;entryY=0;entryDx=0;entryDy=0;" edge="1" parent="1" source="5-14tlIYAE3f_qk5LCCF-1" target="5-14tlIYAE3f_qk5LCCF-4">
          <mxGeometry relative="1" as="geometry" />
        </mxCell>
        <mxCell id="5-14tlIYAE3f_qk5LCCF-1" value="کاربر روی گزینه &quot;خرید تمپلیت&quot; کلیک میکند" style="rounded=1;whiteSpace=wrap;html=1;fillColor=#f5f5f5;gradientColor=#b3b3b3;strokeColor=#666666;" vertex="1" parent="1">
          <mxGeometry x="660" y="140" width="120" height="60" as="geometry" />
        </mxCell>
        <mxCell id="5-14tlIYAE3f_qk5LCCF-2" value="" style="endArrow=classic;html=1;rounded=0;exitX=0.5;exitY=1;exitDx=0;exitDy=0;" edge="1" parent="1">
          <mxGeometry width="50" height="50" relative="1" as="geometry">
            <mxPoint x="719.7" y="100" as="sourcePoint" />
            <mxPoint x="719.7" y="140" as="targetPoint" />
          </mxGeometry>
        </mxCell>
        <mxCell id="5-14tlIYAE3f_qk5LCCF-3" value="" style="ellipse;whiteSpace=wrap;html=1;aspect=fixed;fillColor=light-dark(#464a4e, #7d8c9b);strokeColor=#314354;fontColor=#ffffff;" vertex="1" parent="1">
          <mxGeometry x="695.1600000000001" y="50" width="50" height="50" as="geometry" />
        </mxCell>
        <mxCell id="5-14tlIYAE3f_qk5LCCF-7" style="edgeStyle=orthogonalEdgeStyle;rounded=0;orthogonalLoop=1;jettySize=auto;html=1;exitX=0.5;exitY=1;exitDx=0;exitDy=0;entryX=0.5;entryY=0;entryDx=0;entryDy=0;" edge="1" parent="1" source="5-14tlIYAE3f_qk5LCCF-4" target="5-14tlIYAE3f_qk5LCCF-6">
          <mxGeometry relative="1" as="geometry" />
        </mxCell>
        <mxCell id="5-14tlIYAE3f_qk5LCCF-4" value="لیستی از تمپلیت های موجود به کاربر نمایش داده میشود" style="rounded=1;whiteSpace=wrap;html=1;fillColor=#f5f5f5;gradientColor=#b3b3b3;strokeColor=#666666;" vertex="1" parent="1">
          <mxGeometry x="660" y="230" width="120" height="60" as="geometry" />
        </mxCell>
        <mxCell id="5-14tlIYAE3f_qk5LCCF-9" style="edgeStyle=orthogonalEdgeStyle;rounded=0;orthogonalLoop=1;jettySize=auto;html=1;exitX=0.5;exitY=1;exitDx=0;exitDy=0;entryX=0.5;entryY=0;entryDx=0;entryDy=0;" edge="1" parent="1" source="5-14tlIYAE3f_qk5LCCF-6" target="5-14tlIYAE3f_qk5LCCF-8">
          <mxGeometry relative="1" as="geometry" />
        </mxCell>
        <mxCell id="5-14tlIYAE3f_qk5LCCF-6" value="کاربر روی تمپلیت مورد نظر خود کلیک میکند" style="rounded=1;whiteSpace=wrap;html=1;fillColor=#f5f5f5;gradientColor=#b3b3b3;strokeColor=#666666;" vertex="1" parent="1">
          <mxGeometry x="660" y="320" width="120" height="60" as="geometry" />
        </mxCell>
        <mxCell id="5-14tlIYAE3f_qk5LCCF-11" style="edgeStyle=orthogonalEdgeStyle;rounded=0;orthogonalLoop=1;jettySize=auto;html=1;exitX=0.5;exitY=1;exitDx=0;exitDy=0;entryX=0.5;entryY=0;entryDx=0;entryDy=0;" edge="1" parent="1" source="5-14tlIYAE3f_qk5LCCF-8" target="5-14tlIYAE3f_qk5LCCF-10">
          <mxGeometry relative="1" as="geometry" />
        </mxCell>
        <mxCell id="5-14tlIYAE3f_qk5LCCF-8" value="کاربر وارد پرداخت درون برنامه ای میشود" style="rounded=1;whiteSpace=wrap;html=1;fillColor=#f5f5f5;gradientColor=#b3b3b3;strokeColor=#666666;" vertex="1" parent="1">
          <mxGeometry x="660" y="420" width="120" height="60" as="geometry" />
        </mxCell>
        <mxCell id="5-14tlIYAE3f_qk5LCCF-12" style="edgeStyle=orthogonalEdgeStyle;rounded=0;orthogonalLoop=1;jettySize=auto;html=1;exitX=1;exitY=0.5;exitDx=0;exitDy=0;entryX=1;entryY=0.5;entryDx=0;entryDy=0;" edge="1" parent="1" source="5-14tlIYAE3f_qk5LCCF-10" target="5-14tlIYAE3f_qk5LCCF-6">
          <mxGeometry relative="1" as="geometry">
            <mxPoint x="850" y="170" as="targetPoint" />
            <Array as="points">
              <mxPoint x="851" y="555" />
              <mxPoint x="851" y="350" />
            </Array>
          </mxGeometry>
        </mxCell>
        <mxCell id="5-14tlIYAE3f_qk5LCCF-13" value="پرداخت ناموفق" style="edgeLabel;html=1;align=center;verticalAlign=middle;resizable=0;points=[];" vertex="1" connectable="0" parent="5-14tlIYAE3f_qk5LCCF-12">
          <mxGeometry x="0.2712" y="-2" relative="1" as="geometry">
            <mxPoint as="offset" />
          </mxGeometry>
        </mxCell>
        <mxCell id="5-14tlIYAE3f_qk5LCCF-16" style="edgeStyle=orthogonalEdgeStyle;rounded=0;orthogonalLoop=1;jettySize=auto;html=1;exitX=0;exitY=0.5;exitDx=0;exitDy=0;" edge="1" parent="1" source="5-14tlIYAE3f_qk5LCCF-10">
          <mxGeometry relative="1" as="geometry">
            <mxPoint x="630" y="700" as="targetPoint" />
          </mxGeometry>
        </mxCell>
        <mxCell id="5-14tlIYAE3f_qk5LCCF-17" value="پرداخت موفق" style="edgeLabel;html=1;align=center;verticalAlign=middle;resizable=0;points=[];" vertex="1" connectable="0" parent="5-14tlIYAE3f_qk5LCCF-16">
          <mxGeometry x="-0.1179" y="1" relative="1" as="geometry">
            <mxPoint as="offset" />
          </mxGeometry>
        </mxCell>
        <mxCell id="5-14tlIYAE3f_qk5LCCF-10" value="" style="rhombus;whiteSpace=wrap;html=1;" vertex="1" parent="1">
          <mxGeometry x="687.66" y="530" width="65" height="50" as="geometry" />
        </mxCell>
        <mxCell id="5-14tlIYAE3f_qk5LCCF-21" style="edgeStyle=orthogonalEdgeStyle;rounded=0;orthogonalLoop=1;jettySize=auto;html=1;exitX=0.5;exitY=1;exitDx=0;exitDy=0;" edge="1" parent="1" source="5-14tlIYAE3f_qk5LCCF-18" target="5-14tlIYAE3f_qk5LCCF-19">
          <mxGeometry relative="1" as="geometry" />
        </mxCell>
        <mxCell id="5-14tlIYAE3f_qk5LCCF-18" value="تمپلیت انتخابی برای کاربر اعمال میشود" style="rounded=1;whiteSpace=wrap;html=1;fillColor=#f5f5f5;gradientColor=#b3b3b3;strokeColor=#666666;" vertex="1" parent="1">
          <mxGeometry x="580" y="700" width="120" height="60" as="geometry" />
        </mxCell>
        <mxCell id="5-14tlIYAE3f_qk5LCCF-19" value="" style="ellipse;whiteSpace=wrap;html=1;aspect=fixed;" vertex="1" parent="1">
          <mxGeometry x="610" y="820" width="60" height="60" as="geometry" />
        </mxCell>
        <mxCell id="5-14tlIYAE3f_qk5LCCF-20" value="" style="ellipse;whiteSpace=wrap;html=1;aspect=fixed;fillColor=#647687;fontColor=#ffffff;strokeColor=#314354;" vertex="1" parent="1">
          <mxGeometry x="620" y="830" width="40" height="40" as="geometry" />
        </mxCell>
      </root>
    </mxGraphModel>
  </diagram>
</mxfile>
